#!OML:ASF E:\Style4\Style4.ASF
:FULLY-SPECIFIED
:DEGREES
634
root 0.0436119 16.7056 -2.46454 3.86129 -0.749308 2.97721
lowerback 18.2487 1.59666 -1.37567
upperback 9.89569 1.86793 0.12587
thorax 0.342323 0.878197 0.583463
lowerneck 6.96098 -4.44101 -5.17279
upperneck -10.7923 -5.91211 6.16839
head -4.01072 -3.07193 3.04004
rclavicle -2.06736e-014 -5.56597e-015
rhumerus 26.6435 9.48273 -68.5095
rradius 123.751
rwrist 16.9796
rhand 18.2252 -3.89905
rfingers 7.12502
rthumb 42.8783 -28.1879
lclavicle -2.06736e-014 -5.56597e-015
lhumerus 26.7667 -18.3505 57.5723
lradius 114.993
lwrist -9.17361
lhand 13.9767 38.1583
lfingers 7.12502
lthumb 38.8875 63.7104
rfemur -37.2233 -1.24389 15.9776
rtibia 56.1296
rfoot -21.7128 -10.4362
rtoes -11.6097
lfemur -36.0722 0.899253 -21.7342
ltibia 53.958
lfoot -21.1344 6.6376
ltoes -16.3804
635
root 0.0479832 16.705 -2.46496 3.85157 -0.790303 2.97558
lowerback 18.2528 1.58172 -1.37145
upperback 9.91695 1.84896 0.128216
thorax 0.363566 0.868487 0.587135
lowerneck 7.0072 -4.46677 -5.05083
upperneck -10.8954 -5.94057 6.0976
head -4.05426 -3.08726 3.00415
rclavicle 1.27222e-014 -5.96354e-015
rhumerus 27.3608 9.12631 -68.3557
rradius 123.207
rwrist 17.125
rhand 17.8945 -3.59414
rfingers 7.12502
rthumb 42.5688 -27.9907
lclavicle 1.27222e-014 -5.96354e-015
lhumerus 26.5675 -18.674 57.445
lradius 115.634
lwrist -8.65289
lhand 14.3038 38.3119
lfingers 7.12502
lthumb 39.1959 63.7755
rfemur -37.2362 -1.20785 15.9614
rtibia 56.1059
rfoot -21.5971 -10.5214
rtoes -12.0673
lfemur -36.0643 0.901444 -21.7477
ltibia 53.9734
lfoot -21.203 6.61262
ltoes -16.0318
636
root 0.0520294 16.7054 -2.46518 3.83739 -0.818743 2.97157
lowerback 18.2308 1.56233 -1.37357
upperback 9.96465 1.82407 0.136847
thorax 0.426361 0.855113 0.603083
lowerneck 6.94792 -4.48411 -4.99222
upperneck -10.9179 -5.95491 6.09531
head -4.05223 -3.09604 2.99346
rclavicle 2.38542e-015 2.38542e-015
rhumerus 28.0703 8.82762 -68.1941
rradius 122.63
rwrist 17.3338
rhand 17.6956 -3.6225
rfingers 7.12502
rthumb 42.3827 -28.083
lclavicle 2.38542e-015 2.38542e-015
lhumerus 26.5621 -18.9663 57.3055
lradius 116.292
lwrist -8.12053
lhand 14.6759 38.7248
lfingers 7.12502
lthumb 39.5465 64.086
rfemur -37.1947 -1.20629 15.956
rtibia 56.1142
rfoot -21.6548 -10.4646
rtoes -11.9884
lfemur -36.0511 0.909456 -21.76
ltibia 53.9906
lfoot -21.2122 6.67241
ltoes -16.2622
637
root 0.0550405 16.7054 -2.46588 3.82156 -0.815378 2.91728
lowerback 18.1412 1.54761 -1.3234
upperback 10.0373 1.81528 0.180828
thorax 0.550544 0.850501 0.62594
lowerneck 6.95018 -4.4962 -5.06234
upperneck -10.9775 -5.97031 6.16695
head -4.06514 -3.10502 3.02881
rclavicle -1.23246e-014 3.57812e-015
rhumerus 28.7998 8.49169 -67.9963
rradius 121.941
rwrist 17.5007
rhand 17.8467 -3.87449
rfingers 7.12502
rthumb 42.5241 -28.2865
lclavicle -1.23246e-014 3.57812e-015
lhumerus 26.5854 -19.2574 57.1989
lradius 116.948
lwrist -7.81824
lhand 15.3792 39.0536
lfingers 7.12502
lthumb 40.2085 64.2164
rfemur -37.1617 -1.20436 16.0071
rtibia 56.1529
rfoot -21.7173 -10.3966
rtoes -11.5268
lfemur -36.0512 0.90654 -21.7107
ltibia 54.0167
lfoot -21.2031 6.72631
ltoes -16.5878
638
root 0.0573768 16.7028 -2.46794 3.76957 -0.800493 2.86932
lowerback 18.0316 1.53039 -1.32525
upperback 10.1509 1.79624 0.245597
thorax 0.727396 0.837637 0.702823
lowerneck 6.97527 -4.50003 -5.11282
upperneck -11.0862 -5.97946 6.17384
head -4.09998 -3.10816 3.04296
rclavicle -1.07344e-014 -8.34896e-015
rhumerus 29.5938 8.10044 -67.8121
rradius 121.037
rwrist 17.5447
rhand 17.5203 -3.86985
rfingers 7.12502
rthumb 42.2185 -28.3863
lclavicle -1.07344e-014 -8.34896e-015
lhumerus 26.6137 -19.4775 57.1171
lradius 117.66
lwrist -7.5943
lhand 15.9765 39.3132
lfingers 7.12502
lthumb 40.77 64.3022
rfemur -37.134 -1.19598 16.056
rtibia 56.1981
rfoot -21.716 -10.4088
rtoes -11.5666
lfemur -36.0263 0.90266 -21.6632
ltibia 54.047
lfoot -21.1702 6.65768
ltoes -16.4008
639
root 0.0600619 16.6988 -2.46942 3.77768 -0.779092 2.92501
lowerback 17.9681 1.53396 -1.3854
upperback 10.1919 1.79347 0.234054
thorax 0.803047 0.833616 0.727186
lowerneck 6.8876 -4.51498 -5.03581
upperneck -11.0578 -5.99299 6.12956
head -4.07988 -3.1146 3.01427
rclavicle 8.74653e-015 -7.95139e-015
rhumerus 30.2171 7.61722 -67.7425
rradius 120.051
rwrist 17.6235
rhand 17.1879 -3.67274
rfingers 7.12502
rthumb 41.907 -28.2939
lclavicle 8.74653e-015 -7.95139e-015
lhumerus 26.7111 -19.7289 56.9852
lradius 118.351
lwrist -7.33736
lhand 16.3921 39.3873
lfingers 7.12502
lthumb 41.1604 64.2525
rfemur -37.1973 -1.22614 15.9771
rtibia 56.2616
rfoot -21.7403 -10.3213
rtoes -11.5644
lfemur -36.0554 0.89415 -21.7397
ltibia 54.0644
lfoot -21.1427 6.58031
ltoes -15.9531
640
root 0.0619526 16.6979 -2.47044 3.78781 -0.741515 2.97526
lowerback 18.0161 1.53563 -1.38034
upperback 10.1553 1.79494 0.187141
thorax 0.740586 0.836626 0.673018
lowerneck 6.84299 -4.54484 -4.97415
upperneck -10.979 -6.02653 6.12727
head -4.04856 -3.13316 3.00173
rclavicle -2.98177e-014 1.27222e-014
rhumerus 30.6296 7.24636 -67.733
rradius 119.083
rwrist 17.8847
rhand 17.0904 -3.7577
rfingers 7.12502
rthumb 41.8156 -28.4092
lclavicle -2.98177e-014 1.27222e-014
lhumerus 26.8628 -20.0247 56.8524
lradius 119.032
lwrist -6.97021
lhand 16.6401 39.5152
lfingers 7.12502
lthumb 41.3932 64.3053
rfemur -37.2371 -1.25713 15.9053
rtibia 56.3077
rfoot -21.7709 -10.313
rtoes -11.5262
lfemur -36.0832 0.897923 -21.807
ltibia 54.0742
lfoot -21.1205 6.62515
ltoes -16.1383
641
root 0.0625125 16.6956 -2.47222 3.77285 -0.707565 3.00432
lowerback 18.0739 1.47868 -1.50414
upperback 10.0873 1.70195 0.238316
thorax 0.635155 0.784506 0.810151
lowerneck 7.02813 -4.48001 -5.18145
upperneck -10.9675 -5.97032 6.12542
head -4.07293 -3.09869 3.03733
rclavicle -2.78299e-015 -7.55382e-015
rhumerus 31.057 7.26919 -67.6043
rradius 118.077
rwrist 18.2178
rhand 17.009 -4.10749
rfingers 7.12502
rthumb 41.7392 -28.7843
lclavicle -2.78299e-015 -7.55382e-015
lhumerus 26.8761 -20.0768 56.8589
lradius 119.726
lwrist -6.55733
lhand 16.7724 39.652
lfingers 7.12502
lthumb 41.5173 64.4017
rfemur -37.2433 -1.26855 15.8665
rtibia 56.3491
rfoot -21.8008 -10.3447
rtoes -11.4791
lfemur -36.0867 0.920321 -21.8408
ltibia 54.0834
lfoot -21.132 6.57716
ltoes -16.2807
642
root 0.0637786 16.6924 -2.47366 3.74354 -0.693736 3.00265
lowerback 18.1363 1.41846 -1.64645
upperback 10.0133 1.60212 0.330603
thorax 0.520179 0.727313 1.00238
lowerneck 7.25788 -4.37727 -5.48831
upperneck -10.9848 -5.8759 6.13146
head -4.11262 -3.04209 3.09165
rclavicle -1.98785e-015 3.18055e-015
rhumerus 31.5079 7.31192 -67.5189
rradius 116.911
rwrist 18.2331
rhand 17.0556 -4.26877
rfingers 7.12502
rthumb 41.7829 -28.9311
lclavicle -1.98785e-015 3.18055e-015
lhumerus 26.873 -20.0469 56.9462
lradius 120.438
lwrist -6.22287
lhand 16.9912 39.6307
lfingers 7.12502
lthumb 41.7225 64.313
rfemur -37.2257 -1.25969 15.8627
rtibia 56.3645
rfoot -21.7771 -10.3994
rtoes -11.5751
lfemur -36.0786 0.938687 -21.8484
ltibia 54.1186
lfoot -21.1214 6.50933
ltoes -16.2069
643
root 0.0658321 16.6907 -2.47469 3.69034 -0.641444 2.97201
lowerback 18.2219 1.456 -1.52352
upperback 9.99302 1.66737 0.293172
thorax 0.45661 0.766589 0.880215
lowerneck 7.23169 -4.44661 -5.3915
upperneck -10.8883 -5.95831 6.13764
head -4.0767 -3.08709 3.07833
rclavicle 9.54166e-015 1.19271e-015
rhumerus 31.7725 6.8292 -67.6231
rradius 115.582
rwrist 18.1445
rhand 17.0848 -4.13949
rfingers 7.12502
rthumb 41.8103 -28.7928
lclavicle 9.54166e-015 1.19271e-015
lhumerus 27.335 -20.2851 56.8932
lradius 121.122
lwrist -6.01919
lhand 17.1442 39.4494
lfingers 7.12502
lthumb 41.866 64.0842
rfemur -37.1397 -1.26088 15.8869
rtibia 56.3482
rfoot -21.7538 -10.4657
rtoes -11.65
lfemur -36.0587 0.917166 -21.8315
ltibia 54.1756
lfoot -21.1188 6.56852
ltoes -16.6539
644
root 0.0675777 16.6882 -2.47631 3.64399 -0.596735 2.9158
lowerback 18.3006 1.60607 -1.16554
upperback 10.0082 1.91289 0.121988
thorax 0.442335 0.9086 0.453683
lowerneck 7.1008 -4.69578 -4.87795
upperneck -10.7894 -6.23178 6.1412
head -4.02483 -3.24204 3.00242
rclavicle -8.34896e-015 -4.37326e-015
rhumerus 31.8159 5.88534 -67.8045
rradius 114.203
rwrist 18.2481
rhand 16.7848 -3.92254
rfingers 7.12502
rthumb 41.5289 -28.6685
lclavicle -8.34896e-015 -4.37326e-015
lhumerus 28.3102 -20.823 56.5632
lradius 121.785
lwrist -5.84111
lhand 17.1302 39.2385
lfingers 7.12502
lthumb 41.8529 63.8777
rfemur -37.0964 -1.21584 15.9316
rtibia 56.3212
rfoot -21.674 -10.5938
rtoes -12.2448
lfemur -36.0593 0.922811 -21.7782
ltibia 54.2425
lfoot -21.1271 6.62099
ltoes -17.2507
645
root 0.0677897 16.6864 -2.47833 3.60493 -0.550628 2.86335
lowerback 18.3678 1.7283 -0.92456
upperback 10.0219 2.10611 0.0185385
thorax 0.431605 1.01788 0.173638
lowerneck 7.03086 -4.89335 -4.44167
upperneck -10.7771 -6.45962 6.0219
head -4.01547 -3.36465 2.90371
rclavicle 2.38542e-015 -7.55382e-015
rhumerus 31.8611 5.09234 -67.854
rradius 112.885
rwrist 18.3145
rhand 16.51 -3.8619
rfingers 7.12502
rthumb 41.2711 -28.6915
lclavicle 2.38542e-015 -7.55382e-015
lhumerus 29.2448 -21.1714 56.2934
lradius 122.511
lwrist -5.4351
lhand 16.9292 39.2125
lfingers 7.12502
lthumb 41.6644 63.914
rfemur -37.0696 -1.17114 15.9803
rtibia 56.3103
rfoot -21.6294 -10.6719
rtoes -12.4206
lfemur -36.0577 0.922795 -21.721
ltibia 54.2937
lfoot -21.1803 6.5466
ltoes -17.1397
646
root 0.0675675 16.6839 -2.4778 3.59333 -0.521431 2.86196
lowerback 18.3686 1.73105 -1.01268
upperback 10.0254 2.09722 0.0643598
thorax 0.430444 1.0087 0.27309
lowerneck 6.96633 -4.89006 -4.51066
upperneck -10.7357 -6.4728 5.92297
head -3.9928 -3.36218 2.88198
rclavicle -1.39149e-014 1.59028e-015
rhumerus 32.1405 4.90665 -67.8162
rradius 111.47
rwrist 18.3991
rhand 16.2391 -3.82571
rfingers 7.12502
rthumb 41.0167 -28.7368
lclavicle -1.39149e-014 1.59028e-015
lhumerus 29.7986 -20.9349 56.3153
lradius 123.268
lwrist -4.84033
lhand 16.7493 39.3415
lfingers 7.12502
lthumb 41.4956 64.0983
rfemur -37.0438 -1.1683 15.9769
rtibia 56.3598
rfoot -21.7446 -10.5822
rtoes -11.6962
lfemur -36.0647 0.941533 -21.7235
ltibia 54.3254
lfoot -21.2443 6.46754
ltoes -16.9616
